<svg xmlns="http://www.w3.org/2000/svg" width="5.75cm" height="48">
    <path fill-rule="evenodd" d="M162.632 27.624v7.392h-21.12v-33.6h20.88v7.392h-13.2v5.568h12v7.296h-12v5.952h13.44zm-39.6.576c1.696 0 3.24-.367 4.632-1.104 1.392-.736 2.44-1.743 3.144-3.024l6.624 3.84c-1.44 2.4-3.44 4.296-6 5.688-2.561 1.392-5.36 2.088-8.4 2.088-5.024 0-9.192-1.671-12.504-5.016-3.312-3.343-4.968-7.495-4.968-12.456 0-4.96 1.656-9.112 4.968-12.456 3.312-3.343 7.48-5.016 12.504-5.016 3.007 0 5.791.696 8.352 2.088 2.56 1.392 4.576 3.288 6.048 5.688l-6.624 3.84c-.737-1.312-1.793-2.328-3.168-3.048-1.376-.72-2.912-1.08-4.608-1.08-2.976 0-5.352.912-7.128 2.736-1.776 1.824-2.664 4.241-2.664 7.248 0 3.008.888 5.424 2.664 7.248 1.776 1.824 4.152 2.736 7.128 2.736zM93.08 1.416h7.68v33.6h-7.68v-33.6zm-24.096 33.6L58.04 1.416h8.4l7.44 24.72 7.441-24.72h8.4l-10.945 33.6h-9.792zm-33.983-33.6H55.88v7.392H42.681v5.568h12v7.296h-12v5.952h13.44v7.392h-21.12v-33.6zm-21.12 33.6H.441v-33.6h13.44c4.639 0 8.52 1.608 11.64 4.824 3.12 3.216 4.68 7.208 4.68 11.976 0 4.769-1.56 8.76-4.68 11.976-3.12 3.216-7.001 4.824-11.64 4.824zm6.456-23.64c-1.648-1.711-3.8-2.568-6.456-2.568h-5.76v18.816h5.76c2.656 0 4.808-.855 6.456-2.568 1.648-1.711 2.472-3.991 2.472-6.84 0-2.848-.824-5.127-2.472-6.84z"/>
</svg>
